<svg width="67" height="75" viewBox="0 0 67 75" fill="none" xmlns="http://www.w3.org/2000/svg">
<path d="M0.03916 40.7709C-0.653254 29.4673 7.90235 17.9298 20.4834 17.9298C23.3805 17.9298 24.6944 18.5643 27.8498 19.489C29.5393 19.9841 32.4022 21.3599 34.0576 21.3599C35.713 21.3599 37.6995 20.3465 40.3791 19.4209C44.1804 18.1078 46.4287 17.9674 48.6251 17.9298C55.9916 17.9298 61.3998 20.8304 64.848 25.3357C59.1565 28.824 56.1572 33.0533 55.9916 39.9134C55.9916 46.1499 60.2129 52.2304 67 54.9589C65.3446 61.5072 56.4055 74.9935 49.0389 74.9935C46.5094 74.8573 44.9548 74.4854 42.0035 73.4344C39.8043 72.5265 36.8718 71.8753 34.968 71.8753C32.9816 71.7973 30.7552 72.4037 27.974 73.4344C25.6151 74.3086 24.2096 74.8048 20.9799 74.9935C14.855 75.3515 1.2664 60.8056 0.03916 40.7709Z" fill="white"/>
<path d="M38.0305 5.76873C34.6139 9.2342 33.3126 13.7982 33.561 17.9298C39.1893 17.5401 43.0795 15.3573 46.6386 11.3036C50.1977 7.24989 50.2239 4.30426 50.1977 0C46.0552 0.634882 41.2586 2.49459 38.0305 5.76873Z" fill="white"/>
</svg>
