<svg width="187" height="155" viewBox="0 0 187 155" fill="none" xmlns="http://www.w3.org/2000/svg">
<path d="M46.75 83.9606H13.3571C11.5859 83.9606 9.88715 83.2802 8.63468 82.069C7.3822 80.8578 6.67857 79.215 6.67857 77.5021C6.67857 75.7892 7.3822 74.1465 8.63468 72.9353C9.88715 71.7241 11.5859 71.0436 13.3571 71.0436H43.177L54.5472 54.5421C55.1569 53.6562 55.9834 52.9297 56.9534 52.4272C57.9234 51.9247 59.0067 51.6618 60.1071 51.6618C61.2075 51.6618 62.2909 51.9247 63.2609 52.4272C64.2308 52.9297 65.0574 53.6562 65.6671 54.5421L86.8214 85.22L94.6187 73.9177C95.229 73.0329 96.0559 72.3077 97.0259 71.8063C97.9958 71.3049 99.0788 71.0429 100.179 71.0436H120.214C121.986 71.0436 123.684 71.7241 124.937 72.9353C126.189 74.1465 126.893 75.7892 126.893 77.5021C126.893 79.215 126.189 80.8578 124.937 82.069C123.684 83.2802 121.986 83.9606 120.214 83.9606H103.752L92.3813 100.462C91.7717 101.348 90.9451 102.075 89.9752 102.577C89.0052 103.08 87.9218 103.342 86.8214 103.342C85.721 103.342 84.6377 103.08 83.6677 102.577C82.6977 102.075 81.8712 101.348 81.2615 100.462L60.1071 69.7681L52.3099 81.0705C51.7014 81.9582 50.8754 82.6866 49.9053 83.1909C48.9353 83.6951 47.8513 83.9596 46.75 83.9606ZM135.241 0C118.002 0 102.908 7.16895 93.5 19.2867C84.0916 7.16895 68.998 0 51.7589 0C38.0364 0.0149574 24.8803 5.29324 15.1769 14.6768C5.47359 24.0604 0.015467 36.783 0 50.0535C0 50.6589 0 51.2644 0 51.8699C0.0553521 53.5828 0.81207 55.2043 2.10369 56.3777C3.3953 57.551 5.11601 58.1801 6.88728 58.1266C8.65854 58.0731 10.3353 57.3413 11.5486 56.0922C12.7619 54.8432 13.4125 53.1792 13.3571 51.4663C13.3571 50.998 13.3571 50.5217 13.3571 50.0535C13.3704 40.2082 17.4205 30.7698 24.6194 23.8082C31.8183 16.8465 41.5782 12.9298 51.7589 12.917C67.9962 12.917 81.6288 21.2808 87.3223 34.7145C87.8255 35.8991 88.6814 36.9122 89.7814 37.6253C90.8814 38.3383 92.1758 38.719 93.5 38.719C94.8242 38.719 96.1186 38.3383 97.2186 37.6253C98.3186 36.9122 99.1745 35.8991 99.6777 34.7145C105.371 21.2566 119.004 12.917 135.241 12.917C145.422 12.9298 155.182 16.8465 162.381 23.8082C169.579 30.7698 173.63 40.2082 173.643 50.0535C173.643 93.3336 108.727 132.521 93.5 141.118C84.4589 136.024 57.9116 120.128 37.8341 98.9686C36.6363 97.7053 34.9686 96.954 33.1979 96.8798C31.4272 96.8056 29.6986 97.4147 28.3923 98.573C27.086 99.7314 26.309 101.344 26.2323 103.056C26.1556 104.769 26.7854 106.44 27.9832 107.704C54.0046 135.152 88.8667 153.462 90.336 154.229C91.3086 154.735 92.3957 155 93.5 155C94.6043 155 95.6914 154.735 96.664 154.229C100.354 152.308 187 106.565 187 50.0535C186.985 36.783 181.526 24.0604 171.823 14.6768C162.12 5.29324 148.964 0.0149574 135.241 0Z" fill="#BB162E"/>
</svg>
