<svg width="70" height="67" viewBox="0 0 70 67" fill="none" xmlns="http://www.w3.org/2000/svg">
<path d="M35.3987 0C28.5625 0 21.8797 1.96474 16.1956 5.64577C10.5115 9.32679 6.08121 14.5588 3.46508 20.6801C0.848961 26.8014 0.164464 33.5372 1.49815 40.0355C2.83184 46.5339 6.12381 52.503 10.9578 57.1881C15.7917 61.8731 21.9506 65.0637 28.6555 66.3563C35.3604 67.6489 42.3102 66.9855 48.6261 64.4499C54.942 61.9144 60.3403 57.6206 64.1383 52.1116C67.9363 46.6025 69.9635 40.1257 69.9635 33.5C69.9538 24.6181 66.3091 16.1027 59.829 9.82228C53.349 3.54184 44.5629 0.00937941 35.3987 0ZM35.3987 61.8461C29.6142 61.8461 23.9596 60.1837 19.1499 57.069C14.3403 53.9542 10.5916 49.5272 8.37795 44.3476C6.16431 39.168 5.58512 33.4685 6.71363 27.9699C7.84213 22.4713 10.6276 17.4205 14.7179 13.4562C18.8082 9.49196 24.0195 6.79225 29.6929 5.69851C35.3663 4.60477 41.2469 5.16611 46.5911 7.31157C51.9353 9.45702 56.5031 13.0902 59.7168 17.7517C62.9305 22.4132 64.6458 27.8937 64.6458 33.5C64.637 41.0152 61.5528 48.2202 56.0698 53.5343C50.5869 58.8484 43.1529 61.8376 35.3987 61.8461ZM24.7634 33.5C24.7634 35.6634 25.4658 37.772 26.7709 39.527C28.0761 41.282 29.9179 42.5946 32.0356 43.2787C34.1532 43.9629 36.4392 43.9839 38.5698 43.3388C40.7005 42.6938 42.5677 41.4153 43.907 39.6846C44.3305 39.1379 44.9608 38.7766 45.6592 38.6802C46.3576 38.5839 47.0669 38.7603 47.631 39.1708C48.1951 39.5813 48.5679 40.1922 48.6673 40.8691C48.7667 41.546 48.5846 42.2334 48.1611 42.7801C46.1517 45.3754 43.3507 47.2923 40.1549 48.2591C36.9591 49.226 33.5304 49.1939 30.3545 48.1675C27.1785 47.141 24.4163 45.1721 22.4589 42.5397C20.5015 39.9073 19.4483 36.7448 19.4483 33.5C19.4483 30.2552 20.5015 27.0927 22.4589 24.4603C24.4163 21.8279 27.1785 19.859 30.3545 18.8325C33.5304 17.806 36.9591 17.774 40.1549 18.7408C43.3507 19.7077 46.1517 21.6245 48.1611 24.2199C48.3708 24.4906 48.5235 24.7987 48.6103 25.1266C48.6972 25.4545 48.7165 25.7958 48.6673 26.1309C48.6181 26.4661 48.5012 26.7885 48.3234 27.0799C48.1456 27.3713 47.9103 27.6259 47.631 27.8292C47.3517 28.0324 47.0338 28.1803 46.6955 28.2645C46.3571 28.3487 46.005 28.3675 45.6592 28.3198C45.3134 28.2721 44.9807 28.1588 44.68 27.9865C44.3794 27.8141 44.1167 27.5861 43.907 27.3154C42.5677 25.5847 40.7005 24.3062 38.5698 23.6612C36.4392 23.0161 34.1532 23.0371 32.0356 23.7213C29.9179 24.4054 28.0761 25.7179 26.7709 27.473C25.4658 29.228 24.7634 31.3366 24.7634 33.5Z" fill="#B3B3B3"/>
</svg>
