<svg width="90" height="89" viewBox="0 0 90 89" fill="none" xmlns="http://www.w3.org/2000/svg">
<path d="M45 0C36.0999 0 27.3996 2.60988 19.9994 7.4996C12.5991 12.3893 6.83138 19.3393 3.42544 27.4706C0.0194978 35.6019 -0.871652 44.5494 0.864682 53.1815C2.60102 61.8137 6.88685 69.7428 13.1802 75.9662C19.4736 82.1897 27.4918 86.4279 36.2209 88.1449C44.9501 89.862 53.9981 88.9807 62.2208 85.6126C70.4434 82.2445 77.4715 76.5408 82.4161 69.2229C87.3608 61.9049 90 53.3013 90 44.5C89.9874 32.7017 85.2423 21.3902 76.8059 13.0475C68.3695 4.70484 56.9309 0.0124592 45 0ZM48.4615 81.9955V54.7692H58.8462C59.7642 54.7692 60.6447 54.4086 61.2938 53.7666C61.943 53.1247 62.3077 52.254 62.3077 51.3461C62.3077 50.4383 61.943 49.5676 61.2938 48.9257C60.6447 48.2837 59.7642 47.9231 58.8462 47.9231H48.4615V37.6538C48.4615 35.8381 49.1909 34.0968 50.4893 32.8129C51.7876 31.529 53.5485 30.8077 55.3846 30.8077H62.3077C63.2258 30.8077 64.1062 30.447 64.7554 29.8051C65.4045 29.1631 65.7692 28.2925 65.7692 27.3846C65.7692 26.4768 65.4045 25.6061 64.7554 24.9641C64.1062 24.3222 63.2258 23.9615 62.3077 23.9615H55.3846C51.7124 23.9615 48.1906 25.4041 45.5939 27.9719C42.9973 30.5397 41.5385 34.0224 41.5385 37.6538V47.9231H31.1539C30.2358 47.9231 29.3553 48.2837 28.7062 48.9257C28.057 49.5676 27.6923 50.4383 27.6923 51.3461C27.6923 52.254 28.057 53.1247 28.7062 53.7666C29.3553 54.4086 30.2358 54.7692 31.1539 54.7692H41.5385V81.9955C31.7804 81.1146 22.7413 76.5476 16.3014 69.2444C9.86156 61.9412 6.51668 52.464 6.96253 42.7843C7.40839 33.1045 11.6107 23.9673 18.6952 17.2733C25.7798 10.5793 35.2013 6.84375 45 6.84375C54.7987 6.84375 64.2202 10.5793 71.3048 17.2733C78.3894 23.9673 82.5916 33.1045 83.0375 42.7843C83.4833 52.464 80.1385 61.9412 73.6986 69.2444C67.2587 76.5476 58.2196 81.1146 48.4615 81.9955Z" fill="#BB162E"/>
</svg>
