<svg width="278" height="270" viewBox="0 0 278 270" fill="none" xmlns="http://www.w3.org/2000/svg">
<rect width="278" height="270" fill="#08080D"/>
<mask id="mask0_26_12587" style="mask-type:luminance" maskUnits="userSpaceOnUse" x="57" y="68" width="164" height="133">
<path d="M57 68H221V201H57V68Z" fill="white"/>
</mask>
<g mask="url(#mask0_26_12587)">
<path d="M203.638 87.6531C203.289 87.2227 203.08 86.7477 202.975 86.243C202.871 85.7383 202.888 85.2336 203.028 84.7289C203.167 84.2242 203.411 83.7641 203.777 83.3633C204.143 82.9477 204.597 82.6063 205.119 82.3539C207.368 81.3445 209.373 80.5281 210.157 81.107C213.87 84.0164 216.52 87.5047 218.124 91.5719C218.438 92.3734 216.886 93.8133 215.073 95.4016C214.69 95.7578 214.219 96.0102 213.679 96.1883C213.138 96.3516 212.598 96.4109 212.023 96.3664C211.447 96.307 210.924 96.1586 210.436 95.9063C209.948 95.6391 209.547 95.2977 209.251 94.882L203.638 87.6531ZM69.7951 179.209C69.4639 178.764 69.0455 178.423 68.5225 178.155C67.9996 177.903 67.4243 177.755 66.8142 177.74C66.2215 177.71 65.6288 177.799 65.0884 178.022C64.5306 178.245 64.0774 178.556 63.6939 178.957C62.2122 180.53 61.0094 181.926 61.3754 182.713C63.2407 186.661 66.0472 190.045 69.7776 192.866C70.3529 193.311 72.0787 192.524 74.0136 191.545C74.5017 191.277 74.9201 190.936 75.2513 190.52C75.5825 190.105 75.8265 189.659 75.9486 189.17C76.0706 188.68 76.0706 188.19 75.966 187.7C75.8614 187.21 75.6348 186.75 75.321 186.334L69.7951 179.209ZM91.1667 168.982C87.1399 163.802 83.1305 158.621 79.0863 153.455C72.3227 144.727 72.3227 144.727 63.014 151.006C57.5753 154.688 57.122 156.973 60.9745 161.961C68.8014 172.07 76.855 182.03 84.4554 192.272C93.5374 204.518 94.1998 202.44 105.81 194.855C108.651 192.999 108.756 191.396 106.681 188.873C101.399 182.327 96.3265 175.632 91.1667 168.982ZM216.973 109.978C209.251 99.9734 201.302 90.1024 193.754 79.9938C184.829 68.0297 184.149 69.6625 172.295 77.5445C171.72 77.8117 171.232 78.168 170.848 78.6281C170.465 79.0883 170.238 79.6078 170.151 80.157C170.064 80.7211 170.116 81.2555 170.343 81.7899C170.569 82.3242 170.918 82.7844 171.406 83.1703C176.932 89.9836 182.214 96.975 187.583 103.892L199.384 119.077C205.939 127.509 205.939 127.509 215.108 121.334C220.791 117.534 221.174 115.411 216.973 109.978ZM114.177 155.207C107.779 146.954 101.364 138.716 94.9668 130.477C86.9481 120.176 86.9481 120.176 75.7045 127.627C69.2895 131.888 68.9583 133.565 73.6127 139.562C86.9133 156.721 100.249 173.866 113.584 191.01C122.265 202.173 122.44 202.188 134.485 193.771C139.401 190.342 139.784 188.22 136.176 183.529C128.872 174.073 121.551 164.633 114.177 155.207ZM183.922 105.629C177.525 97.3758 171.11 89.1375 164.695 80.9141C156.85 70.8203 156.85 70.8203 145.851 78.1234C139.035 82.6359 138.808 83.9125 143.829 90.3547C157.147 107.514 170.482 124.659 183.818 141.788C192.237 152.609 192.237 152.624 203.83 144.802C209.495 140.987 209.896 139.102 205.921 133.951C198.617 124.495 191.279 115.055 183.922 105.629ZM158.716 117.563C158.384 117.118 157.966 116.747 157.443 116.435C156.92 116.138 156.362 115.945 155.735 115.841C155.125 115.752 154.514 115.767 153.904 115.901C153.294 116.02 152.736 116.257 152.248 116.584L114.961 141.12C113.915 141.848 113.288 142.783 113.079 143.926C112.887 145.054 113.148 146.108 113.898 147.058L118.465 152.951C118.796 153.411 119.215 153.782 119.738 154.079C120.261 154.391 120.818 154.584 121.446 154.673C122.056 154.777 122.666 154.747 123.276 154.628C123.886 154.495 124.444 154.272 124.932 153.945L162.219 129.394C163.265 128.666 163.893 127.731 164.085 126.603C164.294 125.46 164.032 124.421 163.283 123.456L158.716 117.563Z" fill="#BB162E"/>
</g>
</svg>
