<svg width="243" height="120" viewBox="0 0 243 120" fill="none" xmlns="http://www.w3.org/2000/svg">
<path d="M235.406 54H227.813V30C227.813 26.8174 226.212 23.7652 223.364 21.5147C220.516 19.2643 216.653 18 212.625 18H197.438V12C197.438 8.8174 195.837 5.76515 192.989 3.51472C190.141 1.26428 186.278 0 182.25 0H159.469C155.441 0 151.578 1.26428 148.73 3.51472C145.881 5.76515 144.281 8.8174 144.281 12V54H98.7188V12C98.7188 8.8174 97.1186 5.76515 94.2704 3.51472C91.4222 1.26428 87.5592 0 83.5313 0H60.75C56.722 0 52.859 1.26428 50.0108 3.51472C47.1626 5.76515 45.5625 8.8174 45.5625 12V18H30.375C26.347 18 22.484 19.2643 19.6358 21.5147C16.7876 23.7652 15.1875 26.8174 15.1875 30V54H7.59375C5.57976 54 3.64826 54.6321 2.22416 55.7574C0.800054 56.8826 0 58.4087 0 60C0 61.5913 0.800054 63.1174 2.22416 64.2426C3.64826 65.3679 5.57976 66 7.59375 66H15.1875V90C15.1875 93.1826 16.7876 96.2348 19.6358 98.4853C22.484 100.736 26.347 102 30.375 102H45.5625V108C45.5625 111.183 47.1626 114.235 50.0108 116.485C52.859 118.736 56.722 120 60.75 120H83.5313C87.5592 120 91.4222 118.736 94.2704 116.485C97.1186 114.235 98.7188 111.183 98.7188 108V66H144.281V108C144.281 111.183 145.881 114.235 148.73 116.485C151.578 118.736 155.441 120 159.469 120H182.25C186.278 120 190.141 118.736 192.989 116.485C195.837 114.235 197.438 111.183 197.438 108V102H212.625C216.653 102 220.516 100.736 223.364 98.4853C226.212 96.2348 227.813 93.1826 227.813 90V66H235.406C237.42 66 239.352 65.3679 240.776 64.2426C242.2 63.1174 243 61.5913 243 60C243 58.4087 242.2 56.8826 240.776 55.7574C239.352 54.6321 237.42 54 235.406 54ZM30.375 90V30H45.5625V90H30.375ZM83.5313 108H60.75V12H83.5313V108ZM182.25 108H159.469V12H182.25V95.865C182.25 95.91 182.25 95.955 182.25 96C182.25 96.045 182.25 96.09 182.25 96.135V108ZM212.625 90H197.438V30H212.625V90Z" fill="#BB162E"/>
</svg>
