<svg width="162" height="198" viewBox="0 0 162 198" fill="none" xmlns="http://www.w3.org/2000/svg">
<path d="M64.9005 0.707188C61.6525 1.05494 57.9005 2.39244 55.1145 4.21144C50.0885 7.48831 46.6585 12.4772 45.4965 18.2151C45.1045 20.1411 45.1465 24.0733 45.5665 25.9726C46.5605 30.4398 48.4785 33.8504 51.7965 37.0203C55.1145 40.1902 58.6845 42.0226 63.3605 42.9722C65.4885 43.4136 69.6325 43.4136 71.7605 42.9722C76.4365 42.0226 80.0065 40.1902 83.3245 37.0203C85.3125 35.1211 86.4185 33.6632 87.5805 31.4563C91.2205 24.5013 90.6325 16.3961 85.9985 9.85569C84.7525 8.11694 81.8825 5.40181 79.9925 4.21144C75.4845 1.34919 70.2625 0.132063 64.9005 0.707188ZM69.8145 9.32069C75.1765 10.2168 79.1385 13.7077 80.6085 18.8571C81.0425 20.3417 81.0425 23.5784 80.6085 25.0631C79.5585 28.7144 77.3325 31.4429 73.9305 33.2753C72.0265 34.2784 70.0805 34.7332 67.5605 34.7332C64.4945 34.7332 62.1985 34.0511 59.7905 32.4193C53.3645 28.0724 52.2305 19.4456 57.3265 13.6141C60.2665 10.2436 65.2085 8.54494 69.8145 9.32069Z" fill="#BB162E"/>
<path d="M60.4203 52.067C57.1583 52.4148 53.6023 53.6854 50.6483 55.5713C48.7583 56.7617 45.8883 59.4768 44.6423 61.2155C42.9063 63.6765 41.5763 66.7528 41.0163 69.6418C40.7643 70.9258 40.7503 72.2767 40.7503 101.207V131.434L41.0723 132.839C41.5063 134.751 42.0943 136.383 42.9483 138.055L43.6623 139.459L42.3883 147.203C41.6883 151.457 41.1003 154.948 41.0723 154.961C41.0443 154.974 38.5383 156.084 35.5003 157.409C13.9403 166.865 10.4263 168.403 9.25031 168.951C4.75631 171.011 1.52231 175.117 0.626312 179.919C0.360312 181.323 0.402312 184.011 0.696312 185.402C1.03231 186.927 1.83031 188.893 2.37631 189.509C2.62831 189.789 3.13231 190.431 3.51031 190.953C4.40631 192.17 6.25431 193.909 7.51431 194.711C10.3283 196.49 13.0863 197.306 16.2923 197.306C18.2243 197.293 19.6103 197.079 21.2203 196.544C22.6623 196.049 63.3183 178.233 64.5363 177.565C66.7063 176.348 68.9743 174.328 70.3603 172.375C71.3123 171.011 72.3623 168.898 72.7543 167.547C72.9223 166.958 73.8603 162.17 74.8403 156.914C76.1563 149.919 76.6883 147.324 76.8423 147.23C77.3183 146.936 98.5843 138.898 98.6683 138.978C98.7243 139.018 101.076 145.251 103.89 152.834C106.984 161.127 109.266 167.065 109.644 167.747C110.4 169.152 111.758 170.797 113.018 171.827C113.536 172.255 113.97 172.643 113.97 172.696C113.97 172.75 113.592 173.084 113.13 173.459C111.744 174.569 109.518 176.856 108.468 178.26C106.34 181.122 104.94 184.118 104.1 187.556L103.792 188.84L102.896 188.92C101.3 189.04 100.082 189.816 99.3123 191.194C99.0323 191.675 98.9903 191.956 98.9903 193.16C98.9903 194.364 99.0323 194.645 99.3123 195.126C99.8023 196.009 100.418 196.597 101.272 196.999L102.07 197.373H130.28H158.49L159.288 196.999C160.142 196.597 160.758 196.009 161.248 195.126C161.528 194.645 161.57 194.364 161.57 193.16C161.57 191.956 161.528 191.675 161.248 191.194C160.478 189.816 159.26 189.04 157.678 188.92L156.782 188.853L156.334 187.088C155.06 182.179 152.652 178.22 148.718 174.622C145.806 171.947 142.348 169.954 138.596 168.791L137.308 168.389L137.854 167.293C139.324 164.283 139.618 160.191 138.61 156.847C137.952 154.707 124.666 119.236 124.064 118.033C121.11 112.174 114.824 108.362 108.104 108.362C107.418 108.362 105.304 108.483 103.414 108.63C101.524 108.777 96.9183 109.138 93.1803 109.432C89.4423 109.727 86.1803 109.994 85.9423 110.021L85.4803 110.088V93.8505V77.5999L113.452 77.5598L141.41 77.5197L142.53 77.212C146.576 76.1019 149.698 73.6008 151.42 70.0564C152.33 68.224 152.596 66.9935 152.596 64.7599C152.61 63.1549 152.554 62.6333 152.288 61.6837C150.846 56.5878 146.576 52.8829 141.2 52.067C140.08 51.8932 62.0163 51.8932 60.4203 52.067ZM141.228 60.9213C142.138 61.3493 142.922 62.125 143.356 63.0078C143.58 63.4759 143.65 63.8905 143.65 64.7599C143.65 65.7363 143.594 66.0038 143.258 66.6592C142.824 67.5018 142.054 68.2107 141.074 68.6654L140.43 68.973L110.12 69.0399C80.9863 69.1068 79.7823 69.1202 79.2503 69.3609C78.3263 69.7622 77.5843 70.4443 77.0663 71.3404L76.5903 72.183V93.9843V115.786L76.8843 116.401C77.6403 117.952 79.1943 118.929 80.9023 118.929C81.6723 118.929 94.3003 117.966 105.78 117.043C108.02 116.856 109.448 116.936 110.68 117.31C112.878 117.966 114.866 119.597 115.846 121.497C116.742 123.235 129.986 158.907 130.168 160.084C130.476 161.983 129.846 164.096 128.6 165.327C126.332 167.56 122.902 168.109 120.256 166.664C119.234 166.116 118.17 164.979 117.61 163.842C117.358 163.307 114.516 155.817 111.31 147.217C108.104 138.603 105.332 131.314 105.15 131.02C104.212 129.495 102.154 128.652 100.39 129.08C100.026 129.161 93.4883 131.622 85.8583 134.524C78.2143 137.44 71.7463 139.887 71.4803 139.954C71.2143 140.034 70.6963 140.235 70.3463 140.409C69.4643 140.824 66.8323 141.466 65.1243 141.666C58.0683 142.522 51.9783 138.643 50.0183 132.05L49.7103 131.033L49.6683 101.809C49.6403 80.529 49.6683 72.29 49.7803 71.5143C50.6063 66.0172 54.9743 61.6837 60.6863 60.6805C61.5683 60.5334 68.2743 60.5067 101.09 60.52L140.43 60.5468L141.228 60.9213ZM56.3323 149.29C58.8803 150.079 60.2243 150.28 63.0803 150.28C64.4243 150.266 65.8383 150.199 66.2303 150.119C66.6083 150.039 66.9443 149.999 66.9723 150.026C67.0563 150.106 64.3263 164.604 64.1023 165.273C63.5003 167.119 62.2123 168.777 60.5883 169.794C60.0703 170.128 58.1663 171.038 56.3603 171.827C54.5543 172.616 50.7743 174.274 47.9603 175.505C45.1463 176.735 40.5543 178.755 37.7403 179.986C34.9263 181.216 29.9843 183.383 26.7503 184.801C18.0423 188.626 18.0983 188.599 16.9503 188.773C14.8923 189.081 12.8623 188.412 11.3503 186.941C8.97031 184.627 8.67631 181.283 10.6503 178.648C11.5043 177.498 12.4983 176.909 16.2503 175.264C17.9443 174.529 22.1723 172.683 25.6303 171.158C29.1023 169.647 35.4443 166.851 39.7423 164.979C45.6363 162.397 47.7083 161.421 48.1703 161.033C49.2903 160.084 49.3883 159.763 50.4803 153.182C51.0123 149.905 51.4603 147.217 51.4603 147.203C51.4603 147.19 52.1743 147.538 53.0563 147.966C53.9383 148.407 55.4083 148.996 56.3323 149.29ZM133.71 176.374C139.884 177.605 144.826 181.818 146.884 187.596C147.066 188.104 147.22 188.599 147.22 188.706C147.22 188.853 144.252 188.88 130.28 188.88C116.308 188.88 113.34 188.853 113.34 188.706C113.34 188.425 113.956 186.767 114.446 185.75C115.146 184.279 116.644 182.246 117.946 180.989C120.69 178.354 123.756 176.856 127.69 176.227C129.132 176 132.212 176.067 133.71 176.374Z" fill="#BB162E"/>
</svg>
