<svg width="215" height="177" viewBox="0 0 215 177" fill="none" xmlns="http://www.w3.org/2000/svg">
<path d="M22.4012 6.32651C8.61585 15.6821 0 34.8186 0 55.656C0 80.7461 11.2006 124.973 22.4012 144.96C36.6174 170.05 48.2488 175.578 90.0357 176.854C134.407 178.129 151.208 171.325 167.578 146.235C173.609 136.454 187.395 120.72 197.734 110.939C215.827 93.929 216.258 92.6532 214.104 73.0915C212.381 57.3571 208.934 50.1277 198.165 40.7721C185.672 30.1408 181.364 28.4397 164.994 30.566C143.885 32.6923 127.084 45.0247 123.207 61.6096C121.053 69.6894 117.606 71.8157 107.267 71.8157C98.6515 71.8157 90.0357 76.0683 81.8506 84.1481L69.3576 96.0552L52.1259 74.7925C31.8787 50.553 30.1555 45.0247 44.3717 48.4267C51.2643 50.1277 56.8646 48.0015 64.1881 40.3469C76.2503 27.5892 73.6656 16.9579 56.4338 6.75176C40.9253 -2.17858 34.8942 -2.17858 22.4012 6.32651ZM56.0031 16.5326L66.7729 24.6125L56.8646 34.3933C48.6796 42.8984 46.5256 43.3237 43.0793 37.7953C39.6329 32.267 38.3406 32.267 31.8787 38.2206C22.832 47.5762 26.2784 58.2076 46.0948 81.1713C54.7107 91.3774 63.3265 103.71 65.9113 108.813C71.0808 120.72 77.5427 121.571 77.5427 110.514C77.5427 106.261 81.8506 97.331 87.0201 90.9522C94.7744 81.1713 98.2207 79.8956 112.868 81.5966C127.945 83.7229 129.238 82.8723 129.238 73.0915C129.238 57.7823 151.208 37.7953 168.009 37.7953C186.533 37.7953 206.781 57.7823 206.781 76.0683C206.781 88.4007 191.272 109.663 178.348 114.766C176.194 115.617 170.163 124.122 165.424 133.478C160.255 142.833 149.916 154.74 142.162 160.269C129.238 168.774 124.068 169.624 88.7433 167.923C50.4027 166.222 49.1104 165.797 37.479 151.764C22.832 134.328 13.3546 104.986 9.90823 64.5864C7.32348 34.8186 7.75427 33.9681 20.6781 21.2104C35.7558 5.90126 41.3561 5.05075 56.0031 16.5326Z" fill="#BB162E"/>
</svg>
