<svg width="87" height="85" viewBox="0 0 87 85" fill="none" xmlns="http://www.w3.org/2000/svg">
<path d="M43.5905 22.8846C39.6579 22.8846 35.8137 24.035 32.5438 26.1904C29.274 28.3458 26.7255 31.4093 25.2206 34.9935C23.7157 38.5778 23.3219 42.5218 24.0891 46.3268C24.8563 50.1318 26.75 53.6269 29.5308 56.3702C32.3115 59.1134 35.8544 60.9816 39.7114 61.7385C43.5684 62.4953 47.5663 62.1069 51.1995 60.6223C54.8327 59.1376 57.9381 56.6235 60.1229 53.3977C62.3077 50.172 63.4739 46.3796 63.4739 42.5C63.4684 37.2993 61.3718 32.3132 57.6441 28.6358C53.9164 24.9584 48.8622 22.89 43.5905 22.8846ZM43.5905 55.5769C40.9688 55.5769 38.4059 54.81 36.2261 53.3731C34.0462 51.9362 32.3472 49.8938 31.3439 47.5043C30.3406 45.1148 30.0781 42.4855 30.5896 39.9488C31.101 37.4121 32.3635 35.0821 34.2173 33.2532C36.0712 31.4244 38.4331 30.1789 41.0044 29.6743C43.5758 29.1698 46.241 29.4287 48.6632 30.4185C51.0853 31.4083 53.1556 33.0844 54.6121 35.2349C56.0686 37.3853 56.8461 39.9136 56.8461 42.5C56.8461 45.9682 55.4495 49.2944 52.9636 51.7468C50.4777 54.1992 47.1061 55.5769 43.5905 55.5769ZM63.4739 0H23.7071C17.5568 0.00649034 11.6603 2.41963 7.31136 6.70992C2.96245 11.0002 0.516345 16.8172 0.509766 22.8846V62.1154C0.516345 68.1828 2.96245 73.9998 7.31136 78.2901C11.6603 82.5804 17.5568 84.9935 23.7071 85H63.4739C69.6242 84.9935 75.5207 82.5804 79.8696 78.2901C84.2185 73.9998 86.6646 68.1828 86.6712 62.1154V22.8846C86.6646 16.8172 84.2185 11.0002 79.8696 6.70992C75.5207 2.41963 69.6242 0.00649034 63.4739 0ZM80.0434 62.1154C80.0434 66.4507 78.2977 70.6084 75.1903 73.6739C72.0829 76.7394 67.8684 78.4615 63.4739 78.4615H23.7071C19.3126 78.4615 15.098 76.7394 11.9907 73.6739C8.88328 70.6084 7.13757 66.4507 7.13757 62.1154V22.8846C7.13757 18.5493 8.88328 14.3916 11.9907 11.3261C15.098 8.26064 19.3126 6.53846 23.7071 6.53846H63.4739C67.8684 6.53846 72.0829 8.26064 75.1903 11.3261C78.2977 14.3916 80.0434 18.5493 80.0434 22.8846V62.1154ZM70.1017 21.25C70.1017 22.2199 69.8101 23.168 69.2639 23.9744C68.7177 24.7809 67.9414 25.4094 67.0331 25.7806C66.1248 26.1517 65.1253 26.2488 64.1611 26.0596C63.1968 25.8704 62.3111 25.4034 61.6159 24.7175C60.9207 24.0317 60.4473 23.1579 60.2555 22.2067C60.0637 21.2554 60.1621 20.2694 60.5384 19.3734C60.9146 18.4773 61.5517 17.7114 62.3692 17.1726C63.1866 16.6338 64.1477 16.3462 65.1308 16.3462C66.4492 16.3462 67.7135 16.8628 68.6457 17.7825C69.578 18.7021 70.1017 19.9494 70.1017 21.25Z" fill="#BB162E"/>
</svg>
