<svg width="196" height="192" viewBox="0 0 196 192" fill="none" xmlns="http://www.w3.org/2000/svg">
<path d="M98 51.6923C89.0542 51.6923 80.3093 54.2909 72.8711 59.1595C65.433 64.0281 59.6356 70.948 56.2122 79.0442C52.7888 87.1404 51.8931 96.0492 53.6383 104.644C55.3836 113.239 59.6914 121.134 66.017 127.33C72.3427 133.527 80.402 137.747 89.1759 139.456C97.9498 141.166 107.044 140.289 115.309 136.935C123.574 133.581 130.638 127.902 135.608 120.616C140.578 113.33 143.231 104.763 143.231 96C143.218 84.2526 138.449 72.9899 129.969 64.6832C121.49 56.3766 109.992 51.7045 98 51.6923ZM98 125.538C92.0361 125.538 86.2062 123.806 81.2474 120.56C76.2887 117.315 72.4238 112.701 70.1415 107.304C67.8592 101.906 67.2621 95.9672 68.4256 90.2373C69.589 84.5074 72.4609 79.2442 76.678 75.1132C80.8951 70.9821 86.268 68.1689 92.1173 67.0291C97.9666 65.8894 104.029 66.4743 109.539 68.71C115.049 70.9457 119.759 74.7317 123.072 79.5893C126.385 84.4469 128.154 90.1578 128.154 96C128.154 103.834 124.977 111.347 119.322 116.887C113.667 122.426 105.997 125.538 98 125.538ZM143.231 0H52.7692C38.7786 0.0146605 25.3652 5.46551 15.4723 15.1565C5.57937 24.8475 0.014966 37.9872 0 51.6923V140.308C0.014966 154.013 5.57937 167.152 15.4723 176.843C25.3652 186.534 38.7786 191.985 52.7692 192H143.231C157.221 191.985 170.635 186.534 180.528 176.843C190.421 167.152 195.985 154.013 196 140.308V51.6923C195.985 37.9872 190.421 24.8475 180.528 15.1565C170.635 5.46551 157.221 0.0146605 143.231 0ZM180.923 140.308C180.923 150.1 176.952 159.492 169.883 166.416C162.815 173.341 153.227 177.231 143.231 177.231H52.7692C42.7726 177.231 33.1854 173.341 26.1167 166.416C19.0481 159.492 15.0769 150.1 15.0769 140.308V51.6923C15.0769 41.8997 19.0481 32.5082 26.1167 25.5837C33.1854 18.6593 42.7726 14.7692 52.7692 14.7692H143.231C153.227 14.7692 162.815 18.6593 169.883 25.5837C176.952 32.5082 180.923 41.8997 180.923 51.6923V140.308ZM158.308 48C158.308 50.1908 157.645 52.3324 156.402 54.154C155.159 55.9756 153.393 57.3954 151.327 58.2337C149.261 59.0721 146.987 59.2915 144.794 58.8641C142.601 58.4367 140.586 57.3817 139.004 55.8326C137.423 54.2834 136.346 52.3097 135.91 50.161C135.473 48.0123 135.697 45.7851 136.553 43.761C137.409 41.737 138.858 40.007 140.718 38.7899C142.577 37.5727 144.764 36.9231 147 36.9231C149.999 36.9231 152.875 38.0901 154.996 40.1674C157.116 42.2448 158.308 45.0622 158.308 48Z" fill="white"/>
</svg>
