<svg width="87" height="85" viewBox="0 0 87 85" fill="none" xmlns="http://www.w3.org/2000/svg">
<path d="M79.5336 0H6.6278C4.87 0 3.18419 0.688871 1.94124 1.91507C0.698284 3.14127 0 4.80435 0 6.53846V78.4615C0 80.1956 0.698284 81.8587 1.94124 83.0849C3.18419 84.3111 4.87 85 6.6278 85H79.5336C81.2914 85 82.9772 84.3111 84.2202 83.0849C85.4631 81.8587 86.1614 80.1956 86.1614 78.4615V6.53846C86.1614 4.80435 85.4631 3.14127 84.2202 1.91507C82.9772 0.688871 81.2914 0 79.5336 0ZM79.5336 78.4615H6.6278V6.53846H79.5336V78.4615ZM29.8251 35.9615V62.1154C29.8251 62.9824 29.476 63.814 28.8545 64.4271C28.233 65.0402 27.3901 65.3846 26.5112 65.3846C25.6323 65.3846 24.7894 65.0402 24.1679 64.4271C23.5464 63.814 23.1973 62.9824 23.1973 62.1154V35.9615C23.1973 35.0945 23.5464 34.2629 24.1679 33.6498C24.7894 33.0367 25.6323 32.6923 26.5112 32.6923C27.3901 32.6923 28.233 33.0367 28.8545 33.6498C29.476 34.2629 29.8251 35.0945 29.8251 35.9615ZM66.278 47.4038V62.1154C66.278 62.9824 65.9289 63.814 65.3074 64.4271C64.6859 65.0402 63.843 65.3846 62.9641 65.3846C62.0852 65.3846 61.2423 65.0402 60.6208 64.4271C59.9993 63.814 59.6502 62.9824 59.6502 62.1154V47.4038C59.6502 45.2362 58.7773 43.1574 57.2237 41.6246C55.67 40.0919 53.5627 39.2308 51.3655 39.2308C49.1682 39.2308 47.0609 40.0919 45.5073 41.6246C43.9536 43.1574 43.0807 45.2362 43.0807 47.4038V62.1154C43.0807 62.9824 42.7316 63.814 42.1101 64.4271C41.4886 65.0402 40.6457 65.3846 39.7668 65.3846C38.8879 65.3846 38.045 65.0402 37.4235 64.4271C36.802 63.814 36.4529 62.9824 36.4529 62.1154V35.9615C36.457 35.1608 36.7589 34.3893 37.3013 33.7936C37.8437 33.1978 38.5889 32.8191 39.3955 32.7294C40.2022 32.6397 41.0141 32.8452 41.6773 33.3069C42.3406 33.7686 42.809 34.4544 42.9937 35.2341C45.2355 33.7339 47.8492 32.8643 50.5542 32.7189C53.2591 32.5736 55.9531 33.1578 58.3468 34.4089C60.7406 35.66 62.7437 37.5308 64.141 39.8202C65.5383 42.1097 66.2771 44.7314 66.278 47.4038ZM31.4821 24.5192C31.4821 25.4891 31.1905 26.4372 30.6443 27.2437C30.0981 28.0501 29.3218 28.6786 28.4135 29.0498C27.5052 29.421 26.5057 29.5181 25.5414 29.3289C24.5772 29.1396 23.6915 28.6726 22.9963 27.9868C22.3011 27.301 21.8277 26.4272 21.6359 25.4759C21.4441 24.5247 21.5425 23.5387 21.9187 22.6426C22.295 21.7465 22.9321 20.9807 23.7495 20.4418C24.567 19.903 25.5281 19.6154 26.5112 19.6154C27.8296 19.6154 29.0939 20.132 30.0261 21.0517C30.9583 21.9713 31.4821 23.2187 31.4821 24.5192Z" fill="#BB162E"/>
</svg>
