<svg width="157" height="195" viewBox="0 0 157 195" fill="none" xmlns="http://www.w3.org/2000/svg">
<path d="M104.656 26.833C104.656 21.5259 103.122 16.3381 100.248 11.9254C97.3737 7.51273 93.2888 4.07348 88.5094 2.04255C83.7301 0.0116262 78.471 -0.519757 73.3973 0.515601C68.3235 1.55096 63.663 4.10655 60.005 7.85922C56.3471 11.6119 53.856 16.3931 52.8467 21.5982C51.8375 26.8032 52.3555 32.1985 54.3351 37.1016C56.3148 42.0046 59.6673 46.1954 63.9686 49.1438C68.2699 52.0923 73.3269 53.666 78.5 53.666C85.437 53.666 92.0898 50.839 96.995 45.8068C101.9 40.7746 104.656 33.9496 104.656 26.833ZM78.5 40.2495C75.9134 40.2495 73.385 39.4626 71.2343 37.9884C69.0836 36.5142 67.4074 34.4188 66.4176 31.9673C65.4277 29.5157 65.1688 26.8181 65.6734 24.2156C66.178 21.613 67.4235 19.2224 69.2525 17.3461C71.0815 15.4698 73.4118 14.192 75.9486 13.6743C78.4855 13.1566 81.115 13.4223 83.5047 14.4378C85.8944 15.4532 87.9369 17.1729 89.3739 19.3792C90.8109 21.5855 91.5779 24.1795 91.5779 26.833C91.5779 30.3913 90.2001 33.8038 87.7475 36.3199C85.2949 38.836 81.9685 40.2495 78.5 40.2495ZM152.341 105.697L115.421 62.7473C112.966 59.8927 109.947 57.6066 106.565 56.0409C103.183 54.4751 99.5144 53.6656 95.8037 53.666H61.1963C57.4857 53.6656 53.8174 54.4751 50.4352 56.0409C47.053 57.6066 44.0342 59.8927 41.5794 62.7473L4.65878 105.697C1.66048 108.843 -0.0126692 113.071 7.22417e-05 117.471C0.0128137 121.871 1.71042 126.089 4.72689 129.217C7.74337 132.345 11.8371 134.131 16.1254 134.19C20.4138 134.25 24.5533 132.579 27.6514 129.536L40.9745 118.568L27.4552 171.295C25.6646 175.348 25.5168 179.965 27.0443 184.13C28.5718 188.295 31.6495 191.667 35.6003 193.504C39.5511 195.341 44.0515 195.492 48.1113 193.925C52.1711 192.358 55.4578 189.201 57.2484 185.148L78.5 147.523L99.7516 185.148C101.622 189.065 104.907 192.08 108.909 193.554C112.91 195.028 117.314 194.844 121.186 193.042C125.058 191.239 128.093 187.96 129.648 183.9C131.202 179.84 131.153 175.319 129.512 171.295L116.025 118.568L129.349 129.536C132.447 132.579 136.586 134.25 140.875 134.19C145.163 134.131 149.257 132.345 152.273 129.217C155.29 126.089 156.987 121.871 157 117.471C157.013 113.071 155.34 108.843 152.341 105.697ZM142.933 119.759C142.63 120.071 142.269 120.318 141.872 120.487C141.475 120.656 141.05 120.743 140.62 120.743C140.19 120.743 139.765 120.656 139.368 120.487C138.971 120.318 138.611 120.071 138.307 119.759C138.135 119.591 137.964 119.424 137.776 119.273L108.743 95.3913C107.671 94.5139 106.358 94.0041 104.989 93.9341C103.619 93.8641 102.263 94.2375 101.112 95.0013C99.9609 95.7652 99.0728 96.8809 98.5735 98.1908C98.0742 99.5007 97.9888 100.938 98.3294 102.301L117.031 175.253C117.127 175.642 117.258 176.021 117.423 176.385C117.612 176.785 117.721 177.22 117.745 177.664C117.768 178.108 117.705 178.552 117.56 178.971C117.415 179.389 117.19 179.774 116.898 180.103C116.607 180.432 116.254 180.698 115.861 180.886C115.469 181.073 115.044 181.179 114.611 181.197C114.178 181.215 113.746 181.144 113.34 180.989C112.933 180.834 112.561 180.598 112.245 180.294C111.929 179.99 111.675 179.625 111.497 179.219C111.417 179.038 111.327 178.862 111.227 178.691L84.1562 130.811C83.5814 129.794 82.7564 128.951 81.7637 128.364C80.771 127.777 79.6456 127.469 78.5 127.469C77.3544 127.469 76.229 127.777 75.2363 128.364C74.2437 128.951 73.4186 129.794 72.8438 130.811L45.8052 178.649C45.7056 178.82 45.6155 178.996 45.5355 179.177C45.3539 179.577 45.0973 179.936 44.7803 180.234C44.4633 180.532 44.0922 180.763 43.6882 180.913C43.0802 181.142 42.4197 181.18 41.7905 181.023C41.1612 180.866 40.5916 180.521 40.1538 180.031C39.7161 179.542 39.4299 178.93 39.3315 178.273C39.2331 177.617 39.3271 176.945 39.6014 176.343C39.7661 175.979 39.8974 175.6 39.9937 175.211L58.6706 102.301C59.0112 100.938 58.9259 99.5007 58.4265 98.1908C57.9272 96.8809 57.0391 95.7652 55.8879 95.0013C54.7367 94.2375 53.3806 93.8641 52.0113 93.9341C50.642 94.0041 49.3288 94.5139 48.2573 95.3913L19.2243 119.273C19.0363 119.424 18.8647 119.591 18.693 119.759C18.3927 120.084 18.0321 120.344 17.6323 120.523C17.2326 120.703 16.8018 120.799 16.3655 120.805C15.9291 120.811 15.496 120.727 15.0916 120.559C14.6872 120.391 14.3198 120.141 14.0109 119.825C13.7021 119.508 13.4581 119.132 13.2933 118.717C13.1285 118.303 13.0463 117.859 13.0515 117.411C13.0567 116.963 13.1492 116.521 13.3236 116.111C13.4979 115.7 13.7506 115.33 14.0667 115.021C14.1648 114.921 14.2547 114.82 14.3446 114.711L51.3878 71.619C52.6156 70.1924 54.1252 69.0502 55.8163 68.268C57.5073 67.4859 59.3413 67.0818 61.1963 67.0825H95.8037C97.6587 67.0818 99.4927 67.4859 101.184 68.268C102.875 69.0502 104.384 70.1924 105.612 71.619L142.655 114.711C142.745 114.82 142.835 114.921 142.933 115.021C143.545 115.65 143.888 116.502 143.888 117.39C143.888 118.278 143.545 119.13 142.933 119.759Z" fill="#BB162E"/>
</svg>
