<svg width="245" height="214" viewBox="0 0 245 214" fill="none" xmlns="http://www.w3.org/2000/svg">
<path d="M41.248 4.63926C36.5107 5.26621 29.7636 7.31426 25.6484 9.4459C18.6142 13.0404 11.5322 19.9787 8.1347 26.499C3.73236 34.942 3.11028 45.3076 6.41204 53.8342C8.27825 58.599 10.3837 61.8174 11.7714 62.1099C13.5898 62.5279 15.456 61.8174 16.1738 60.4381C16.7958 59.3931 16.7001 59.017 15.1689 56.0912C12.6327 51.1592 11.915 48.6931 11.6279 43.6775C10.8144 28.6724 21.4374 15.8408 38.1376 11.6193C41.87 10.658 41.9179 10.658 77.0409 10.658H112.212L115.992 11.6193C122.5 13.2494 126.95 15.5482 131.879 19.8533C135.755 23.1971 136.568 24.1584 138.674 28.0037C140.014 30.4279 141.449 33.7299 141.832 35.4018C143.411 41.5877 142.502 49.3619 139.583 54.9209C138.961 56.0912 135.181 61.901 131.209 67.8361C126.28 75.1506 123.935 78.9959 123.935 79.8318C123.935 80.7932 124.749 81.8799 127.572 84.5131C137.908 94.3353 143.842 105.997 145.517 119.748C146.761 129.946 144.177 142.318 139.009 151.304L137.286 154.272L132.166 154.147L127.046 154.021L126.807 146.498C126.567 139.225 126.519 138.891 125.18 136.467C120.251 127.731 107.857 124.847 98.6699 130.281C96.1816 131.785 93.2626 134.753 92.4013 136.759L91.9228 137.846L88.0468 136.132C84.4101 134.502 83.8837 134.377 80.247 134.377C72.2079 134.377 66.1786 137.929 62.9247 144.533C62.0634 146.331 61.9677 147.626 61.8242 160.834L61.6806 175.129H52.7324C37.2763 175.129 34.9794 174.46 27.2753 167.647C17.5136 159.121 11.58 149.34 8.51751 136.926C7.12982 131.242 7.03411 119.915 8.32611 114.314C10.1445 106.247 13.4941 98.8494 18.1835 92.5799C20.6718 89.2779 25.9833 83.51 28.4238 81.5455C30.4335 79.9154 30.0986 78.4525 26.5097 73.0607C24.787 70.4693 22.9208 68.0033 22.3945 67.5853C21.1025 66.624 19.5712 66.6658 17.9921 67.7525C16.1259 69.0064 16.3652 70.4693 19.1406 74.5654C20.4326 76.5299 21.5331 78.2435 21.5331 78.3689C21.5331 78.5361 20.1454 80.0826 18.4228 81.7963C-7.2735 108.003 -5.88581 146.79 21.581 171.576C27.1318 176.592 30.7685 178.765 35.8886 180.228C38.5683 180.98 40.5302 181.106 50.2919 181.315L61.5849 181.482L61.8242 186.205C62.0156 190.092 62.3027 191.304 63.3075 193.269C66.5615 199.454 72.3515 202.756 79.912 202.756C83.788 202.756 86.707 202.046 89.5781 200.416C90.5829 199.831 91.4921 199.371 91.6357 199.371C91.7314 199.371 92.4013 200.249 93.0234 201.377C94.3632 203.634 98.0478 206.853 100.775 208.065C109.532 211.952 120.825 208.524 125.275 200.625C126.519 198.41 126.567 197.992 126.711 190.677L126.902 183.07H153.412H179.922V189.34C179.922 195.484 179.97 195.693 181.118 196.654C182.602 197.992 184.42 197.992 185.903 196.654L187.1 195.651V168.358C187.1 142.653 187.195 140.981 188.009 139.392C191.741 132.412 202.603 131.785 207.101 138.347L208.633 140.604V168.441C208.633 194.522 208.537 196.32 207.724 197.95C206.144 201.001 201.694 203.551 197.914 203.551C197.244 203.551 194.579 203.118 193 202.617C189.411 201.53 188.774 201.837 187.769 203.718C187.052 204.972 187.052 205.181 187.769 206.393C188.918 208.315 192.89 209.528 198.105 209.569C201.694 209.611 202.556 209.444 205.283 208.315C208.776 206.853 211.887 204.345 213.753 201.503C214.471 200.458 215.093 199.538 215.141 199.454C215.188 199.371 216.05 199.789 217.102 200.374C219.974 202.046 222.893 202.756 226.816 202.756C234.999 202.798 241.602 198.619 244.043 191.889C244.952 189.381 245 188.086 245 168.65C245 149.131 244.952 147.919 244.043 145.286C242.416 140.73 237.966 136.676 232.798 135.129C228.97 133.959 223.419 134.126 219.878 135.547C218.299 136.216 216.672 137.01 216.193 137.386C215.188 138.18 215.284 138.222 213.896 135.881C212.413 133.29 208.824 130.322 205.57 128.985C198.058 125.892 188.392 127.94 183.559 133.708C180.496 137.386 180.257 138.222 180.018 146.581L179.826 154.23H162.887C152.599 154.23 145.947 154.063 145.947 153.854C145.947 153.603 146.713 151.848 147.574 149.883C151.785 140.855 153.747 129.152 152.742 119.915C151.977 113.478 151.067 109.549 149.058 104.241C146.091 96.467 140.301 87.5225 134.511 81.8381C133.171 80.5424 132.07 79.3721 132.07 79.2049C132.07 79.0377 135.037 74.4818 138.674 69.0482C148.579 54.2521 149.536 51.8279 149.536 42.2146C149.536 36.7392 149.345 35.2346 148.435 32.476C143.937 18.8084 132.501 8.90254 117.141 5.3498C113.265 4.43027 112.499 4.43027 78.7158 4.34668C59.3837 4.30488 42.9228 4.43027 41.248 4.63926ZM114.652 135.254C116.327 136.132 117.332 137.094 118.289 138.724L119.629 140.939V168.608C119.629 199.831 119.82 198.159 115.801 201.126C111.398 204.428 104.938 204.094 100.871 200.332C97.9999 197.741 98.0956 198.577 98.0956 168.65C98.0956 138.431 97.9999 139.601 101.11 136.717C104.699 133.415 110.202 132.83 114.652 135.254ZM85.415 141.858C87.9033 143.154 89.3388 144.826 90.248 147.417C91.1093 149.925 91.205 186.665 90.3915 189.549C89.7216 191.806 87.1376 194.522 84.5536 195.651C78.6679 198.284 70.8202 194.982 69.3847 189.298C69.0019 187.71 68.9062 181.189 69.0019 167.187L69.1454 147.334L70.4853 145.369C73.5956 140.73 80.1513 139.183 85.415 141.858ZM231.936 141.649C234.329 142.694 236.052 144.45 237.057 146.79C237.774 148.379 237.822 150.928 237.726 169.277L237.583 189.967L236.291 191.889C232.654 197.323 223.945 198.201 219.112 193.645C215.906 190.677 216.05 191.68 216.05 168.65C216.05 145.328 215.906 146.331 219.495 143.196C222.701 140.437 227.773 139.769 231.936 141.649ZM179.922 168.65V176.801H153.364H126.807V168.65V160.5H153.364H179.922V168.65Z" fill="#BB162E"/>
<path d="M42.1569 27.8365C36.0319 29.7173 31.6774 34.315 30.6246 39.9994C30.1461 42.5072 30.7203 46.2271 31.9166 48.2751C34.692 52.9564 44.8844 67.7107 46.0807 68.672C47.7076 70.0513 47.6119 70.0513 53.7848 68.1287C61.8717 65.6208 66.2262 65.0357 76.3229 65.0357C86.611 64.9939 91.2047 65.6626 100.488 68.5048C103.263 69.3408 105.991 69.9677 106.565 69.8841C107.187 69.8005 108.048 69.2572 108.527 68.6302C110.393 66.2896 121.255 49.8634 122.452 47.6482C124.031 44.6388 124.079 40.1665 122.547 36.781C121.16 33.6044 117.427 30.0099 113.982 28.547L111.255 27.3767L77.7584 27.2931C48.4254 27.2095 43.9752 27.2931 42.1569 27.8365ZM110.441 34.0642C114.987 35.7361 117.523 40.3337 116.088 44.3462C115.561 45.9345 105.464 61.3994 104.316 62.4443C104.077 62.6533 102.354 62.3607 100.153 61.7337C91.9703 59.3931 87.1852 58.7662 76.5621 58.7662C66.0826 58.7662 61.7281 59.2677 53.3063 61.6083L49.7653 62.6115L47.7555 59.6021C46.6549 57.972 44.0709 54.1267 42.0133 51.0337C39.9557 47.9826 38.0895 44.806 37.8981 43.9283C36.9889 40.2919 39.2379 36.154 43.0182 34.3986L45.1237 33.4372H76.8971C104.46 33.4372 108.91 33.5208 110.441 34.0642Z" fill="#BB162E"/>
<path d="M10.8124 60.0941L10.2429 60.3246L10.5843 60.8355L17.5843 71.3078L17.9071 71.7908L18.3366 71.3996L21.8366 68.2124L22.1527 67.9246L21.9175 67.5676L15.9175 58.4612L15.6921 58.1192L15.3124 58.2728L10.8124 60.0941Z" fill="#BB162E" stroke="#BB162E"/>
<path d="M180.5 194.876C180.808 198.939 185.5 205.349 189.5 207.17" stroke="#BB162E"/>
<path d="M192 202.617C188 199.885 186.667 195.484 186.5 194.421L181.5 195.332L182.5 198.975L184 202.162L187.5 204.894L192 202.617Z" fill="#BB162E" stroke="#BB162E"/>
</svg>
