<svg width="90" height="89" viewBox="0 0 90 89" fill="none" xmlns="http://www.w3.org/2000/svg">
<path d="M45 0C36.0999 0 27.3996 2.60988 19.9994 7.4996C12.5991 12.3893 6.83138 19.3393 3.42544 27.4706C0.0194978 35.6019 -0.871652 44.5494 0.864682 53.1815C2.60102 61.8137 6.88685 69.7428 13.1802 75.9662C19.4736 82.1897 27.4918 86.4279 36.2209 88.1449C44.9501 89.862 53.9981 88.9807 62.2208 85.6126C70.4434 82.2445 77.4715 76.5408 82.4161 69.2229C87.3608 61.9049 90 53.3013 90 44.5C89.9874 32.7017 85.2423 21.3902 76.8059 13.0475C68.3695 4.70484 56.9309 0.0124592 45 0ZM45 82.1538C37.4691 82.1538 30.1073 79.9455 23.8456 75.808C17.5839 71.6706 12.7035 65.7898 9.82153 58.9095C6.93958 52.0292 6.18553 44.4582 7.65473 37.1541C9.12394 29.85 12.7504 23.1407 18.0756 17.8747C23.4007 12.6087 30.1854 9.02254 37.5716 7.56966C44.9578 6.11678 52.6138 6.86245 59.5714 9.71238C66.5291 12.5623 72.4759 17.3885 76.6598 23.5806C80.8438 29.7728 83.0769 37.0528 83.0769 44.5C83.0655 54.4829 79.0501 64.0538 71.9118 71.1128C64.7735 78.1718 55.0951 82.1425 45 82.1538ZM58.4438 62.3599C58.0144 63.1621 57.2805 63.7628 56.4034 64.03C55.5263 64.2972 54.5777 64.209 53.7664 63.7847C51.0715 62.3522 48.0596 61.6024 45 61.6024C41.9404 61.6024 38.9286 62.3522 36.2337 63.7847C35.4245 64.187 34.4882 64.2597 33.6255 63.9872C32.7628 63.7147 32.0425 63.1187 31.619 62.3271C31.1956 61.5354 31.1027 60.6112 31.3603 59.7526C31.6179 58.8941 32.2056 58.1695 32.9971 57.7345C36.6956 55.8 40.8161 54.7887 45 54.7887C49.1839 54.7887 53.3045 55.8 57.0029 57.7345C57.8141 58.159 58.4216 58.8848 58.6917 59.7522C58.9619 60.6195 58.8727 61.5575 58.4438 62.3599ZM72.2899 38.3984C72.0758 38.7952 71.7848 39.1464 71.4334 39.432C71.082 39.7176 70.6771 39.9318 70.2419 40.0626C69.8067 40.1933 69.3497 40.2379 68.8971 40.1939C68.4444 40.1499 68.005 40.0181 67.6039 39.8061C60.6528 36.1244 52.8896 34.1979 45.0043 34.1979C37.119 34.1979 29.3558 36.1244 22.4048 39.8061C21.5946 40.2339 20.6458 40.326 19.767 40.062C18.8882 39.798 18.1514 39.1995 17.7188 38.3984C17.2861 37.5972 17.1931 36.6588 17.46 35.7898C17.727 34.9208 18.3321 34.1922 19.1423 33.7644C27.0977 29.5541 35.9813 27.3512 45.0043 27.3512C54.0274 27.3512 62.9109 29.5541 70.8663 33.7644C71.2684 33.9764 71.6242 34.2649 71.9133 34.6132C72.2023 34.9615 72.419 35.3629 72.5509 35.7942C72.6827 36.2255 72.7272 36.6784 72.6816 37.1267C72.6361 37.5751 72.5015 38.0101 72.2856 38.4069L72.2899 38.3984ZM65.3668 50.3791C64.9352 51.1802 64.1996 51.779 63.3216 52.0438C62.4437 52.3086 61.4953 52.2177 60.6851 51.7911C55.8592 49.2455 50.4738 47.9139 45.0043 47.9139C39.5348 47.9139 34.1494 49.2455 29.3236 51.7911C28.5151 52.1995 27.5769 52.2774 26.7109 52.0082C25.8449 51.739 25.1205 51.1441 24.6938 50.3518C24.267 49.5594 24.1721 48.6331 24.4295 47.7722C24.6869 46.9113 25.2759 46.1849 26.0697 45.7494C31.8972 42.6764 38.4 41.0689 45.0043 41.0689C51.6086 41.0689 58.1114 42.6764 63.9389 45.7494C64.3408 45.9611 64.6965 46.2491 64.9856 46.5969C65.2748 46.9448 65.4917 47.3456 65.6239 47.7765C65.7561 48.2073 65.8011 48.6597 65.7563 49.1078C65.7114 49.5559 65.5776 49.9908 65.3625 50.3877L65.3668 50.3791Z" fill="#BB162E"/>
</svg>
