<svg width="99" height="85" viewBox="0 0 99 85" fill="none" xmlns="http://www.w3.org/2000/svg">
<path d="M98.7201 12.8135C98.4427 12.1663 97.9728 11.6131 97.3699 11.2238C96.767 10.8346 96.0581 10.6267 95.3329 10.6266H81.3854C79.4353 7.42222 76.66 4.75973 73.3293 2.89795C69.9986 1.03617 66.2257 0.0384459 62.3776 0.00178633C59.5107 -0.0345337 56.6653 0.483327 54.0087 1.5249C51.352 2.56647 48.9379 4.11071 46.9084 6.06676C44.8196 8.04662 43.1616 10.4099 42.0321 13.0175C40.9026 15.6252 40.3242 18.4247 40.3311 21.2513V23.9474C21.878 19.2459 6.78456 4.74752 6.62413 4.59257C6.1322 4.11322 5.50869 3.77963 4.82703 3.63106C4.14537 3.4825 3.43396 3.52516 2.77657 3.75402C2.11917 3.98288 1.54317 4.38841 1.1164 4.92286C0.68963 5.4573 0.42986 6.0984 0.367679 6.77066C-1.6078 27.9272 4.75407 42.0848 10.4513 50.2348C13.2293 54.2638 16.6087 57.874 20.48 60.9482C13.4994 68.7087 2.50817 72.7859 2.389 72.8302C1.87158 73.0174 1.40465 73.3151 1.0231 73.701C0.641542 74.087 0.355223 74.5512 0.185535 75.0591C0.0158477 75.567 -0.0328202 76.1053 0.0431667 76.6339C0.119154 77.1625 0.31783 77.6676 0.624353 78.1116C0.968115 78.6074 2.34316 80.3472 5.70286 81.9719C9.85549 83.9818 15.3419 85 21.9971 85C54.3886 85 81.4541 60.9083 84.2179 29.9105L97.9272 16.6738C98.4398 16.1783 98.7888 15.547 98.9299 14.8598C99.071 14.1727 98.998 13.4606 98.7201 12.8135ZM78.0944 25.8333C77.4657 26.442 77.0878 27.2507 77.031 28.1087C75.1656 56.0386 51.0014 77.9168 21.9971 77.9168C17.157 77.9168 13.7469 77.297 11.3543 76.5533C16.6299 73.7864 23.9864 69.0274 28.7165 62.1744C28.9942 61.7715 29.1833 61.3178 29.2723 60.8415C29.3613 60.3652 29.3483 59.8763 29.2341 59.405C29.1198 58.9337 28.9067 58.4901 28.608 58.1014C28.3093 57.7128 27.9313 57.3874 27.4973 57.1454C27.2819 57.0258 7.37124 45.4847 7.32999 14.6463C14.6636 20.4014 28.0703 29.3306 43.3883 31.8186C43.9132 31.9041 44.4512 31.8781 44.9648 31.7425C45.4783 31.6069 45.9551 31.3649 46.3621 31.0334C46.7691 30.7018 47.0964 30.2887 47.3213 29.8226C47.5463 29.3565 47.6634 28.8487 47.6647 28.3345V21.2513C47.6605 19.3621 48.0477 17.4912 48.8034 15.7486C49.559 14.0061 50.6679 12.4271 52.0648 11.1047C53.4039 9.80889 54.9984 8.78553 56.7539 8.09511C58.5095 7.40469 60.3906 7.0612 62.286 7.08497C68.0887 7.1558 73.5109 10.5734 75.7798 15.5892C76.0658 16.2198 76.5359 16.7562 77.1326 17.1329C77.7292 17.5095 78.4266 17.7099 79.1394 17.7097H86.473L78.0944 25.8333Z" fill="#BB162E"/>
</svg>
