<svg width="754" height="192" viewBox="0 0 754 192" fill="none" xmlns="http://www.w3.org/2000/svg">
<path d="M320.32 62.08C320.32 62.6133 320.107 63.0933 319.68 63.52C319.36 63.84 318.933 64 318.4 64H284C283.467 64 283.2 64.2667 283.2 64.8V95.04C283.2 95.5733 283.467 95.84 284 95.84H304.32C304.853 95.84 305.28 96.0533 305.6 96.48C306.027 96.8 306.24 97.2267 306.24 97.76V110.08C306.24 110.613 306.027 111.093 305.6 111.52C305.28 111.84 304.853 112 304.32 112H284C283.467 112 283.2 112.267 283.2 112.8V158.08C283.2 158.613 282.987 159.093 282.56 159.52C282.24 159.84 281.813 160 281.28 160H266.56C266.027 160 265.547 159.84 265.12 159.52C264.8 159.093 264.64 158.613 264.64 158.08V49.92C264.64 49.3867 264.8 48.96 265.12 48.64C265.547 48.2133 266.027 48 266.56 48H318.4C318.933 48 319.36 48.2133 319.68 48.64C320.107 48.96 320.32 49.3867 320.32 49.92V62.08ZM332.966 160C332.433 160 331.953 159.84 331.526 159.52C331.206 159.093 331.046 158.613 331.046 158.08V49.92C331.046 49.3867 331.206 48.96 331.526 48.64C331.953 48.2133 332.433 48 332.966 48H347.686C348.22 48 348.646 48.2133 348.966 48.64C349.393 48.96 349.606 49.3867 349.606 49.92V158.08C349.606 158.613 349.393 159.093 348.966 159.52C348.646 159.84 348.22 160 347.686 160H332.966ZM424.268 48C424.801 48 425.228 48.2133 425.548 48.64C425.974 48.96 426.188 49.3867 426.188 49.92V62.08C426.188 62.6133 425.974 63.0933 425.548 63.52C425.228 63.84 424.801 64 424.268 64H403.948C403.414 64 403.148 64.2667 403.148 64.8V158.08C403.148 158.613 402.934 159.093 402.508 159.52C402.188 159.84 401.761 160 401.228 160H386.508C385.974 160 385.494 159.84 385.068 159.52C384.748 159.093 384.588 158.613 384.588 158.08V64.8C384.588 64.2667 384.321 64 383.788 64H364.588C364.054 64 363.574 63.84 363.148 63.52C362.828 63.0933 362.668 62.6133 362.668 62.08V49.92C362.668 49.3867 362.828 48.96 363.148 48.64C363.574 48.2133 364.054 48 364.588 48H424.268ZM499.363 161.28C490.296 161.28 482.989 158.56 477.443 153.12C472.003 147.573 469.283 140.267 469.283 131.2V76.64C469.283 67.4667 472.003 60.2133 477.443 54.88C482.989 49.44 490.296 46.72 499.363 46.72C508.536 46.72 515.896 49.44 521.443 54.88C526.989 60.2133 529.763 67.4667 529.763 76.64V78.56C529.763 79.0933 529.549 79.5733 529.123 80C528.803 80.4267 528.376 80.64 527.843 80.64L512.963 81.28C511.683 81.28 511.043 80.64 511.043 79.36V75.36C511.043 71.6267 509.976 68.5867 507.843 66.24C505.709 63.8933 502.883 62.72 499.363 62.72C495.949 62.72 493.176 63.8933 491.043 66.24C488.909 68.5867 487.843 71.6267 487.843 75.36V132.64C487.843 136.373 488.909 139.413 491.043 141.76C493.176 144.107 495.949 145.28 499.363 145.28C502.883 145.28 505.709 144.107 507.843 141.76C509.976 139.413 511.043 136.373 511.043 132.64V128.64C511.043 128.107 511.203 127.68 511.523 127.36C511.949 126.933 512.429 126.72 512.963 126.72L527.843 127.36C528.376 127.36 528.803 127.573 529.123 128C529.549 128.32 529.763 128.747 529.763 129.28V131.2C529.763 140.267 526.989 147.573 521.443 153.12C515.896 158.56 508.536 161.28 499.363 161.28ZM572.968 161.28C563.794 161.28 556.381 158.507 550.728 152.96C545.181 147.413 542.408 140.053 542.408 130.88V77.12C542.408 67.9467 545.181 60.5867 550.728 55.04C556.381 49.4933 563.794 46.72 572.968 46.72C582.141 46.72 589.554 49.4933 595.208 55.04C600.861 60.5867 603.688 67.9467 603.688 77.12V130.88C603.688 140.053 600.861 147.413 595.208 152.96C589.554 158.507 582.141 161.28 572.968 161.28ZM572.968 145.28C576.594 145.28 579.528 144.053 581.768 141.6C584.008 139.04 585.128 135.733 585.128 131.68V76.32C585.128 72.2667 584.008 69.0133 581.768 66.56C579.528 64 576.594 62.72 572.968 62.72C569.341 62.72 566.408 64 564.168 66.56C562.034 69.0133 560.968 72.2667 560.968 76.32V131.68C560.968 135.733 562.034 139.04 564.168 141.6C566.408 144.053 569.341 145.28 572.968 145.28ZM663.335 160C662.268 160 661.575 159.467 661.255 158.4L647.655 112.48C647.442 112.053 647.175 111.84 646.855 111.84H638.375C637.842 111.84 637.575 112.107 637.575 112.64V158.08C637.575 158.613 637.362 159.093 636.935 159.52C636.615 159.84 636.188 160 635.655 160H620.935C620.402 160 619.922 159.84 619.495 159.52C619.175 159.093 619.015 158.613 619.015 158.08V49.92C619.015 49.3867 619.175 48.96 619.495 48.64C619.922 48.2133 620.402 48 620.935 48H651.015C656.668 48 661.628 49.3867 665.895 52.16C670.268 54.8267 673.628 58.6667 675.975 63.68C678.428 68.5867 679.655 74.24 679.655 80.64C679.655 87.2533 678.375 92.96 675.815 97.76C673.255 102.56 669.682 106.187 665.095 108.64C664.668 108.747 664.508 109.067 664.615 109.6L680.295 157.76C680.402 157.973 680.455 158.24 680.455 158.56C680.455 159.52 679.868 160 678.695 160H663.335ZM638.375 64C637.842 64 637.575 64.2667 637.575 64.8V96.64C637.575 97.1733 637.842 97.44 638.375 97.44H648.135C651.975 97.44 655.068 95.9467 657.415 92.96C659.868 89.9733 661.095 85.92 661.095 80.8C661.095 75.68 659.868 71.6267 657.415 68.64C655.068 65.5467 651.975 64 648.135 64H638.375ZM748.605 62.08C748.605 62.6133 748.392 63.0933 747.965 63.52C747.645 63.84 747.218 64 746.685 64H712.125C711.592 64 711.325 64.2667 711.325 64.8V95.04C711.325 95.5733 711.592 95.84 712.125 95.84H732.605C733.138 95.84 733.565 96.0533 733.885 96.48C734.312 96.8 734.525 97.2267 734.525 97.76V110.08C734.525 110.613 734.312 111.093 733.885 111.52C733.565 111.84 733.138 112 732.605 112H712.125C711.592 112 711.325 112.267 711.325 112.8V143.2C711.325 143.733 711.592 144 712.125 144H746.685C747.218 144 747.645 144.213 747.965 144.64C748.392 144.96 748.605 145.387 748.605 145.92V158.08C748.605 158.613 748.392 159.093 747.965 159.52C747.645 159.84 747.218 160 746.685 160H694.685C694.152 160 693.672 159.84 693.245 159.52C692.925 159.093 692.765 158.613 692.765 158.08V49.92C692.765 49.3867 692.925 48.96 693.245 48.64C693.672 48.2133 694.152 48 694.685 48H746.685C747.218 48 747.645 48.2133 747.965 48.64C748.392 48.96 748.605 49.3867 748.605 49.92V62.08Z" fill="#BB162E"/>
<mask id="mask0_48_347" style="mask-type:luminance" maskUnits="userSpaceOnUse" x="0" y="16" width="185" height="160">
<path d="M0 16H185V176H0V16Z" fill="white"/>
</mask>
<g mask="url(#mask0_48_347)">
<path d="M165.415 39.6428C165.021 39.125 164.785 38.5536 164.667 37.9464C164.549 37.3393 164.569 36.7321 164.726 36.125C164.884 35.5178 165.159 34.9643 165.572 34.4821C165.985 33.9821 166.496 33.5714 167.086 33.2678C169.623 32.0536 171.884 31.0714 172.769 31.7678C176.957 35.2678 179.946 39.4643 181.755 44.3571C182.109 45.3214 180.359 47.0536 178.314 48.9643C177.882 49.3928 177.351 49.6964 176.741 49.9107C176.131 50.1071 175.522 50.1785 174.873 50.125C174.224 50.0536 173.634 49.875 173.084 49.5714C172.533 49.25 172.081 48.8393 171.746 48.3393L165.415 39.6428ZM14.4335 149.786C14.0598 149.25 13.5879 148.839 12.998 148.518C12.4081 148.214 11.7591 148.036 11.0709 148.018C10.4023 147.982 9.73374 148.089 9.12415 148.357C8.4949 148.625 7.98364 149 7.55102 149.482C5.87957 151.375 4.52275 153.054 4.9357 154C7.03976 158.75 10.2057 162.821 14.4138 166.214C15.0627 166.75 17.0095 165.804 19.1922 164.625C19.7428 164.304 20.2147 163.893 20.5883 163.393C20.9619 162.893 21.2372 162.357 21.3749 161.768C21.5125 161.179 21.5125 160.589 21.3946 160C21.2766 159.411 21.0209 158.857 20.667 158.357L14.4335 149.786ZM38.5417 137.482C33.9993 131.25 29.4765 125.018 24.9144 118.804C17.2848 108.304 17.2848 108.304 6.78412 115.857C0.648919 120.286 0.137653 123.036 4.48342 129.036C13.3126 141.196 22.3974 153.179 30.971 165.5C41.216 180.232 41.9632 177.732 55.0595 168.607C58.2648 166.375 58.3828 164.446 56.0427 161.411C50.0845 153.536 44.3622 145.482 38.5417 137.482ZM180.458 66.5C171.746 54.4643 162.78 42.5893 154.265 30.4286C144.197 16.0357 143.43 18 130.058 27.4821C129.41 27.8035 128.859 28.2321 128.426 28.7857C127.994 29.3393 127.738 29.9643 127.64 30.625C127.541 31.3035 127.6 31.9464 127.856 32.5893C128.112 33.2321 128.505 33.7857 129.056 34.25C135.289 42.4464 141.247 50.8571 147.304 59.1786L160.616 77.4464C168.01 87.5893 168.01 87.5893 178.354 80.1607C184.764 75.5893 185.197 73.0357 180.458 66.5ZM64.4983 120.911C57.2816 110.982 50.0452 101.071 42.8284 91.1607C33.783 78.7678 33.783 78.7678 21.0996 87.7321C13.8632 92.8571 13.4896 94.875 18.7399 102.089C33.7436 122.732 48.7867 143.357 63.8297 163.982C73.6225 177.411 73.8191 177.429 87.407 167.304C92.9523 163.179 93.3849 160.625 89.3144 154.982C81.0751 143.607 72.8162 132.25 64.4983 120.911ZM143.174 61.2678C135.958 51.3393 128.721 41.4285 121.485 31.5357C112.636 19.3928 112.636 19.3928 100.228 28.1786C92.5393 33.6071 92.2837 35.1428 97.947 42.8928C112.97 63.5357 128.013 84.1607 143.056 104.768C152.554 117.786 152.554 117.804 165.631 108.393C172.022 103.804 172.474 101.536 167.991 95.3393C159.751 83.9643 151.473 72.6071 143.174 61.2678ZM114.74 75.625C114.366 75.0893 113.895 74.6428 113.305 74.2678C112.715 73.9107 112.085 73.6786 111.378 73.5536C110.689 73.4464 110.001 73.4643 109.313 73.625C108.625 73.7678 107.995 74.0536 107.445 74.4464L65.3832 103.964C64.2033 104.839 63.4954 105.964 63.2595 107.339C63.0432 108.696 63.3381 109.964 64.1837 111.107L69.3357 118.196C69.7093 118.75 70.1812 119.196 70.7712 119.554C71.3611 119.929 71.9903 120.161 72.6982 120.268C73.3865 120.393 74.0747 120.357 74.763 120.214C75.4512 120.054 76.0805 119.786 76.6311 119.393L118.693 89.8571C119.872 88.9821 120.58 87.8571 120.797 86.5C121.033 85.125 120.738 83.875 119.892 82.7143L114.74 75.625Z" fill="white"/>
</g>
</svg>
